<svg width="156" height="56" viewBox="0 0 156 50" fill="none" xmlns="http://www.w3.org/2000/svg">
<path d="M0 5C0 2.23858 2.23858 0 5 0H45C47.7614 0 50 2.23858 50 5V45C50 47.7614 47.7614 50 45 50H5C2.23858 50 0 47.7614 0 45V5Z" fill="#3B82F6"/>
<path d="M18.6621 15.1814H32.7881V29.4417L29.2297 33H26.853V19.062H18.6621V15.1814ZM22.6636 29.4417H25.9131V33H20.072L16.5002 29.4417V25.5342H22.6636V29.4417Z" fill="white"/>
<path d="M73.0938 29.5063L69.6001 33H65.6978V29.7305H67.1479V22.4927H65.6978V18.999H69.6001L73.0938 22.4927V29.5063ZM63.2588 29.7305H64.7749V33H60.8594L57.3657 29.5063V22.4927L60.8594 18.999H64.7749V22.4927H63.2588V29.7305Z" fill="#3B82F6"/>
<path d="M81.5576 13.6597V33H75.7305V13.6597H81.5576ZM85.0908 22.4927H82.4805V20.7261L84.1943 18.999H87.3848L90.8916 22.4927V29.5063L87.3848 33H82.4805V29.7305H85.0908V22.4927Z" fill="#3B82F6"/>
<path d="M96.4419 18.999H98.7754V23.9429H105.42L108.452 27.0015V29.7305L105.196 33H102.625V27.7134H96.3232L93.291 24.7998V22.1367L96.4419 18.999ZM99.1182 30.4292H101.702V33L95.7036 32.9868L93.2778 30.1128V28.9922H99.1182V30.4292ZM102.625 21.5698H99.6982V18.999H105.895L107.978 21.082V22.6641H102.625V21.5698Z" fill="#3B82F6"/>
<path d="M116.731 29.5063H120.581V33H114.411L110.904 29.5063V22.4927H109.744V18.999H110.904V17.4829L116.731 15.5054V29.5063ZM117.654 22.4927V18.999H120.792V22.4927H117.654Z" fill="#3B82F6"/>
<path d="M128.531 33H126.197L122.704 29.5063V22.4927L126.197 18.999H128.531V33ZM129.454 27.3838V24.9448H132.525V22.4927H129.454V18.999H134.397L137.891 22.4927V27.3838H129.454ZM129.454 33V29.7305H137.285V31.2466L135.544 33H129.454Z" fill="#3B82F6"/>
<path d="M149.625 22.4927H147.146V20.9634L149.097 18.999H152.63L155.465 22.2686V25.894H149.625V22.4927ZM140.383 33V18.999H146.21V33H140.383Z" fill="#3B82F6"/>
</svg>
